<svg xmlns="http://www.w3.org/2000/svg" xmlns:xlink="http://www.w3.org/1999/xlink" width="500" zoomAndPan="magnify" viewBox="0 0 375 374.999991" height="500" preserveAspectRatio="xMidYMid meet" version="1.0"><defs><clipPath id="3cc2f0233c"><path d="M 132 107 L 246 107 L 246 207.0625 L 132 207.0625 Z M 132 107 " clip-rule="nonzero"/></clipPath></defs><g clip-path="url(#3cc2f0233c)"><path fill="#ffffff" d="M 143.019531 206.996094 C 143.019531 206.996094 142.382812 206.996094 141.613281 202.789062 C 140.660156 197.527344 142.808594 187.792969 143.125 187.027344 C 140.925781 185.359375 132.34375 177.371094 132.769531 166.316406 C 133.191406 155.261719 141.484375 144.101562 141.484375 144.101562 C 141.484375 144.101562 142.726562 120.640625 155.175781 107.339844 C 159.707031 107.789062 172.5 118.789062 174.832031 120.851562 C 180.714844 119.054688 197.507812 119.292969 203.730469 120.800781 C 203.730469 120.800781 212.234375 111.066406 223.996094 107.894531 C 225.984375 108.609375 239.359375 130.984375 236.871094 144.339844 C 240.871094 147.988281 254.566406 168.722656 235.757812 188.03125 C 239.359375 198.109375 237.082031 207.019531 237.082031 207.019531 Z M 143.019531 206.996094 C 143.019531 206.996094 141.613281 206.28125 141.246094 203.742188 C 140.421875 198.160156 142.753906 188.003906 143.125 187.054688 C 140.925781 185.386719 132.34375 177.398438 132.769531 166.34375 C 133.191406 155.289062 141.484375 144.128906 141.484375 144.128906 C 141.484375 144.128906 142.199219 121.195312 154.648438 107.894531 C 159.175781 108.34375 172.5 118.816406 174.832031 120.878906 C 180.714844 119.082031 197.507812 119.320312 203.730469 120.828125 C 203.730469 120.828125 211.519531 111.09375 223.253906 107.921875 C 225.242188 108.632812 239.332031 131.007812 236.84375 144.367188 C 240.84375 148.015625 254.539062 168.75 235.730469 188.058594 C 239.332031 198.132812 236.816406 207.046875 236.816406 207.046875 L 143.019531 207.046875 Z M 143.019531 206.996094 " fill-opacity="1" fill-rule="nonzero"/></g><path fill="#efb07d" d="M 182.726562 119.980469 C 182.726562 119.980469 198.273438 137.25 178.089844 153.171875 C 157.90625 169.09375 132.316406 161.054688 135.789062 154.203125 C 135.789062 154.203125 139.152344 145.6875 142.304688 143.703125 C 140.371094 138.601562 144.925781 124.34375 149.085938 115.90625 C 149.085938 115.90625 153.269531 107.921875 155.175781 107.363281 C 157.085938 106.808594 169.402344 115.378906 174.382812 119.925781 C 177.5625 120.324219 182.726562 119.980469 182.726562 119.980469 Z M 228.421875 206.996094 C 228.421875 206.996094 235.890625 204.984375 239.625 198.082031 C 235.203125 187.183594 230.40625 172.269531 226.328125 169.464844 C 222.246094 166.660156 221.136719 169.042969 219.464844 171.554688 C 217.929688 168.722656 213.425781 166.554688 212.023438 171.554688 C 210.273438 169.199219 205.003906 168.855469 205.214844 177.347656 C 205.453125 185.835938 210.0625 206.996094 210.0625 206.996094 Z M 228.421875 206.996094 " fill-opacity="1" fill-rule="nonzero"/><path fill="#ef5454" d="M 154.328125 129.898438 C 154.328125 129.898438 150.515625 135.742188 147.417969 141.03125 C 147.335938 122.863281 156.34375 114.957031 156.34375 114.957031 C 154.039062 119.875 154.328125 129.898438 154.328125 129.898438 Z M 224.183594 129.898438 C 224.183594 129.898438 227.625 135.742188 230.75 141.03125 C 230.832031 122.863281 221.824219 114.957031 221.824219 114.957031 C 224.128906 119.875 224.183594 129.898438 224.183594 129.898438 Z M 147.417969 177.132812 C 132.582031 165.628906 138.382812 149.574219 138.382812 149.574219 C 130.226562 158.332031 130.992188 176.816406 140.503906 186.101562 C 141.191406 186.761719 141.933594 187.398438 142.753906 187.976562 C 144.15625 184.59375 146.09375 180.175781 147.417969 177.132812 Z M 171.390625 191.335938 L 170.566406 196.546875 C 175.707031 196.996094 180.210938 196.890625 182.992188 196.285156 C 180.476562 195.144531 176.367188 193.613281 171.390625 191.335938 Z M 207.679688 190.835938 C 202.195312 193.375 197.667969 195.066406 194.964844 196.285156 C 197.878906 196.917969 202.671875 197.023438 208.078125 196.496094 Z M 239.597656 149.574219 C 239.597656 149.574219 245.320312 165.417969 230.832031 176.898438 C 232.050781 179.859375 234.089844 184.726562 235.519531 187.742188 C 236.207031 187.210938 236.871094 186.65625 237.453125 186.101562 C 246.988281 176.816406 247.757812 158.332031 239.597656 149.574219 Z M 223.015625 169.492188 C 223.015625 169.492188 227.441406 174.464844 228.816406 188.003906 C 230.195312 201.546875 225.507812 206.996094 225.507812 206.996094 L 239.597656 206.996094 C 239.597656 206.996094 241.265625 204.164062 239.863281 199.878906 C 238.484375 195.59375 229.796875 172.03125 225.480469 169.464844 C 221.1875 166.898438 223.015625 169.492188 223.015625 169.492188 Z M 152.34375 169.4375 C 148.027344 172.003906 139.335938 195.59375 137.960938 199.855469 C 136.582031 204.136719 138.222656 206.96875 138.222656 206.96875 L 152.316406 206.96875 C 152.316406 206.96875 147.601562 201.492188 149.003906 187.976562 C 150.382812 174.4375 154.808594 169.464844 154.808594 169.464844 C 154.808594 169.464844 156.660156 166.898438 152.34375 169.4375 Z M 194.539062 178.273438 C 194.539062 178.273438 190.804688 180.230469 185.429688 178.273438 C 188.023438 183.351562 193.003906 182.320312 194.539062 178.273438 Z M 209.984375 122.546875 C 209.984375 122.546875 217.53125 112.285156 223.757812 108.792969 C 223.996094 107.894531 220.660156 107.152344 215.28125 111.304688 C 209.902344 115.457031 203.730469 120.828125 203.730469 120.828125 Z M 174.886719 120.828125 C 174.886719 120.828125 168.714844 115.457031 163.335938 111.304688 C 157.957031 107.152344 154.621094 107.894531 154.859375 108.792969 C 161.085938 112.285156 168.632812 122.546875 168.632812 122.546875 Z M 174.886719 120.828125 " fill-opacity="0.298" fill-rule="nonzero"/><path fill="#ffffff" d="M 154.621094 107.894531 C 154.621094 107.894531 145.085938 125.5625 145.746094 145.105469 C 140.078125 149.601562 137.113281 154.203125 134.09375 161.925781 C 133.984375 157.246094 136.792969 151.902344 141.457031 144.128906 C 142.171875 134.183594 148.105469 113.921875 154.621094 107.894531 Z M 141.695312 186.921875 C 141.695312 186.921875 142.675781 187.027344 143.441406 183.507812 C 133.855469 173.90625 133.933594 162.402344 133.933594 162.402344 C 128.925781 173.40625 141.695312 186.921875 141.695312 186.921875 Z M 139.707031 206.996094 C 140.371094 206.996094 141.855469 206.996094 143.019531 206.996094 C 139.070312 202.074219 143.441406 189.960938 143.441406 189.960938 C 135.894531 199.878906 137.90625 206.996094 139.707031 206.996094 Z M 235.253906 189.960938 C 235.253906 189.960938 239.597656 202.074219 235.679688 206.996094 C 237.027344 206.996094 238.113281 206.996094 238.804688 206.996094 C 240.128906 206.570312 240.339844 206.519531 240.339844 206.519531 C 240.339844 206.519531 242.804688 199.878906 235.253906 189.960938 Z M 244.472656 162.429688 C 244.472656 162.429688 244.550781 173.933594 234.960938 183.535156 C 235.730469 187.054688 236.898438 188.085938 236.898438 188.085938 C 236.898438 188.085938 249.480469 173.40625 244.472656 162.429688 Z M 244.472656 162.429688 " fill-opacity="1" fill-rule="nonzero"/><path fill="#2b0806" d="M 216.074219 138.230469 C 212.421875 138.414062 200.6875 142.726562 200.738281 144.074219 C 200.84375 146.5625 209.375 149.8125 215.414062 152.300781 C 221.453125 154.785156 220.207031 151.425781 217.054688 149.417969 C 218.195312 150.078125 220.445312 149.65625 218.726562 148.066406 C 217.53125 146.984375 210.25 144.046875 210.25 144.046875 C 210.25 144.046875 214.167969 143.097656 216.949219 142.328125 C 219.574219 141.613281 219.121094 140.476562 216.605469 140.609375 C 217.824219 140.238281 219.253906 138.070312 216.074219 138.230469 Z M 198.433594 149.550781 C 197.640625 151.1875 195.890625 152.589844 194.167969 151.929688 C 192.449219 151.269531 191.230469 148.492188 189.269531 148.492188 C 187.308594 148.492188 186.117188 151.269531 184.367188 151.929688 C 182.648438 152.589844 180.898438 151.1875 180.105469 149.550781 C 177.691406 150.84375 173.695312 154.308594 173.957031 161.238281 C 174.222656 168.167969 179.097656 173.617188 189.269531 173.617188 C 199.414062 173.617188 204.316406 168.140625 204.578125 161.238281 C 204.816406 154.308594 200.816406 150.84375 198.433594 149.550781 Z M 163.125 152.300781 C 169.164062 149.8125 177.691406 146.5625 177.800781 144.074219 C 177.851562 142.726562 166.089844 138.414062 162.460938 138.230469 C 159.285156 138.070312 160.714844 140.238281 161.957031 140.636719 C 159.441406 140.476562 158.992188 141.640625 161.613281 142.355469 C 164.394531 143.121094 168.316406 144.074219 168.316406 144.074219 C 168.316406 144.074219 161.03125 147.011719 159.839844 148.09375 C 158.117188 149.679688 160.371094 150.105469 161.507812 149.445312 C 158.328125 151.425781 157.085938 154.785156 163.125 152.300781 Z M 221.851562 114.929688 C 221.851562 114.929688 224.128906 124.449219 222.882812 132.277344 C 224.738281 133.070312 230.75 141.03125 230.75 141.03125 C 230.75 141.03125 229.71875 135.691406 225.453125 131.140625 C 226.40625 125.957031 224.738281 117.625 221.851562 114.929688 Z M 236.898438 188.058594 C 254.828125 170.601562 243.675781 151.480469 238.140625 144.285156 C 237.53125 120.851562 226.117188 105.832031 223.226562 106.175781 C 213.453125 108.792969 204.023438 118.367188 202.671875 119.796875 C 197.03125 118.3125 191.839844 118.15625 189.269531 118.207031 C 186.699219 118.183594 181.507812 118.3125 175.867188 119.796875 C 174.488281 118.367188 165.085938 108.792969 155.308594 106.175781 C 152.394531 105.832031 141.007812 120.851562 140.398438 144.285156 C 134.886719 151.453125 123.734375 170.574219 141.640625 188.058594 L 141.613281 188.136719 C 140.316406 191.257812 139.019531 194.484375 137.828125 197.578125 C 137.402344 198.714844 135.761719 203.425781 136.238281 206.996094 C 137.085938 206.996094 139.628906 206.996094 139.734375 206.996094 C 138.570312 205.75 139.707031 200.59375 140.265625 198.953125 C 142.25 193.054688 145.113281 185.359375 147.152344 180.730469 C 150.753906 172.507812 153.667969 168.960938 156.449219 169.519531 C 158.222656 169.863281 159.308594 173.40625 159.308594 173.40625 C 159.308594 173.40625 161.402344 169.492188 163.839844 169.886719 C 165.800781 170.207031 165.695312 172.320312 165.585938 174.304688 C 167.152344 170.734375 171.308594 169.78125 172.105469 174.542969 C 172.632812 177.769531 167.601562 202.761719 167.152344 206.996094 C 167.152344 206.996094 169.003906 206.996094 170.144531 206.996094 C 170.410156 204.296875 172.582031 190.09375 173.347656 184.460938 C 174.171875 178.378906 174.726562 175.390625 173.746094 172.691406 C 171.761719 167.242188 167.628906 168.855469 166.804688 170.523438 C 167.28125 166.636719 162.066406 166 159.761719 169.941406 C 158.566406 165.367188 153.324219 164.890625 148.898438 172.585938 C 147.203125 175.546875 144.980469 180.308594 142.703125 185.652344 C 138.648438 181.789062 125.007812 166.371094 142.726562 144.628906 C 142.726562 139.101562 145.375 121.222656 154.832031 108.792969 C 156.421875 108 164.820312 112.734375 173.375 120.589844 C 171.785156 121.117188 170.171875 121.753906 168.609375 122.546875 C 169.191406 123.234375 177.164062 120.667969 189.296875 120.667969 C 201.425781 120.667969 209.402344 123.234375 209.984375 122.546875 C 208.421875 121.753906 206.804688 121.117188 205.214844 120.589844 C 213.773438 112.734375 222.195312 108 223.757812 108.792969 C 233.214844 121.222656 235.863281 139.128906 235.863281 144.628906 C 253.585938 166.371094 239.941406 181.789062 235.890625 185.652344 C 233.613281 180.335938 231.386719 175.546875 229.691406 172.585938 C 225.269531 164.914062 220.023438 165.390625 218.832031 169.941406 C 216.527344 166 211.308594 166.636719 211.785156 170.523438 C 210.9375 168.882812 206.832031 167.242188 204.84375 172.691406 C 203.863281 175.390625 204.394531 178.378906 205.242188 184.460938 C 206.011719 190.09375 208.183594 204.296875 208.445312 206.996094 C 209.558594 206.996094 211.441406 206.996094 211.441406 206.996094 C 211.015625 202.761719 205.957031 177.796875 206.488281 174.542969 C 207.28125 169.753906 211.414062 170.707031 213.003906 174.304688 C 212.871094 172.320312 212.765625 170.207031 214.75 169.886719 C 217.1875 169.492188 219.28125 173.40625 219.28125 173.40625 C 219.28125 173.40625 220.367188 169.863281 222.140625 169.519531 C 224.921875 168.960938 227.8125 172.507812 231.441406 180.730469 C 233.480469 185.359375 236.339844 193.054688 238.328125 198.953125 C 238.882812 200.59375 240.023438 205.75 238.855469 206.996094 C 238.960938 206.996094 241.503906 206.996094 242.351562 206.996094 C 242.828125 203.425781 241.1875 198.714844 240.765625 197.578125 C 239.519531 194.457031 238.195312 191.207031 236.898438 188.058594 Z M 137.136719 133.8125 C 133.640625 130.796875 130.171875 127.78125 126.703125 124.765625 C 125.878906 124.054688 123.574219 125.269531 124.6875 126.222656 C 128.160156 129.238281 131.628906 132.253906 135.097656 135.265625 C 135.945312 135.980469 138.222656 134.765625 137.136719 133.8125 Z M 133.535156 138.230469 C 128.742188 136.695312 123.945312 135.1875 119.152344 133.652344 C 118.039062 133.308594 116.078125 134.898438 117.640625 135.398438 C 122.4375 136.933594 127.230469 138.441406 132.027344 139.976562 C 133.136719 140.320312 135.097656 138.707031 133.535156 138.230469 Z M 132.398438 143.757812 C 129.164062 144.605469 125.960938 145.476562 122.726562 146.324219 C 121.140625 146.746094 121.535156 148.253906 123.125 147.832031 C 126.359375 146.984375 129.5625 146.109375 132.792969 145.265625 C 134.382812 144.839844 133.984375 143.335938 132.398438 143.757812 Z M 152.6875 131.140625 C 148.449219 135.691406 147.390625 141.03125 147.390625 141.03125 C 147.390625 141.03125 153.402344 133.070312 155.257812 132.277344 C 154.011719 124.449219 156.289062 114.929688 156.289062 114.929688 C 153.429688 117.625 151.761719 125.957031 152.6875 131.140625 Z M 152.6875 131.140625 " fill-opacity="1" fill-rule="nonzero"/><path fill="#ef5454" d="M 202.355469 158.171875 C 202.460938 158.910156 202.511719 159.707031 202.460938 160.578125 C 202.222656 166.714844 197.90625 171.554688 188.898438 171.554688 C 185.058594 171.554688 182.089844 170.679688 179.917969 169.199219 C 186.886719 157.90625 199.121094 157.933594 202.355469 158.171875 Z M 202.355469 158.171875 C 202.460938 158.910156 202.511719 159.707031 202.460938 160.578125 C 202.222656 166.714844 197.90625 171.554688 188.898438 171.554688 C 185.058594 171.554688 182.089844 170.679688 179.917969 169.199219 C 186.886719 157.90625 199.121094 157.933594 202.355469 158.171875 Z M 202.355469 158.171875 " fill-opacity="1" fill-rule="nonzero"/></svg>